<svg width="141" height="97" viewBox="0 0 141 97" fill="none" xmlns="http://www.w3.org/2000/svg">
<path d="M57.8536 49.9937V49.0128L65.7505 44.9907V46.5603L59.6929 49.4787L59.7419 49.3806V49.6259L59.6929 49.5278L65.7505 52.4462V54.0158L57.8536 49.9937ZM73.2565 41.263L69.21 56.2966H67.8856L71.9322 41.263H73.2565ZM83.2855 49.9937L75.3886 54.0158V52.4462L81.4462 49.5278L81.3971 49.6259V49.3806L81.4462 49.4787L75.3886 46.5603V44.9907L83.2855 49.0128V49.9937Z" fill="white"/>
<rect x="51.0766" y="29.4949" width="38.8469" height="37.4082" rx="13.6684" stroke="white" stroke-width="1.43878"/>
<rect x="53.8257" y="32.244" width="33.3488" height="31.91" rx="11.2276" stroke="white" stroke-width="1.18185"/>
<line x1="90.6428" y1="52.5153" x2="99.2755" y2="52.5153" stroke="white" stroke-width="1.43878"/>
<line x1="50.5851" y1="44.4881" x2="41.9533" y2="44.3666" stroke="white" stroke-width="1.43878"/>
<line x1="89.2041" y1="56.8316" x2="102.153" y2="56.8316" stroke="white" stroke-width="1.43878"/>
<line x1="52.0845" y1="40.1925" x2="39.1368" y2="40.0102" stroke="white" stroke-width="1.43878"/>
<line x1="86.3265" y1="33.8112" x2="93.5204" y2="33.8112" stroke="white" stroke-width="1.43878"/>
<line x1="54.6377" y1="63.2511" x2="47.4445" y2="63.1498" stroke="white" stroke-width="1.43878"/>
<line x1="89.2041" y1="38.1276" x2="93.5204" y2="38.1276" stroke="white" stroke-width="1.43878"/>
<line x1="51.8212" y1="58.8947" x2="47.5053" y2="58.8339" stroke="white" stroke-width="1.43878"/>
<line x1="89.2041" y1="42.4439" x2="105.031" y2="42.4439" stroke="white" stroke-width="1.43878"/>
<line x1="51.882" y1="54.5788" x2="36.057" y2="54.356" stroke="white" stroke-width="1.43878"/>
<line x1="71.2194" y1="67.6225" x2="71.2194" y2="83.449" stroke="white" stroke-width="1.43878"/>
<line x1="67.4178" y1="28.8277" x2="66.939" y2="13.0084" stroke="white" stroke-width="1.43878"/>
<line x1="56.8317" y1="64.7449" x2="56.8317" y2="86.3265" stroke="white" stroke-width="1.43878"/>
<line x1="81.886" y1="31.2686" x2="81.2332" y2="9.69683" stroke="white" stroke-width="1.43878"/>
<line x1="64.0255" y1="67.6225" x2="64.0255" y2="86.3265" stroke="white" stroke-width="1.43878"/>
<line x1="74.6083" y1="28.61" x2="74.0425" y2="9.91448" stroke="white" stroke-width="1.43878"/>
<line x1="84.1684" y1="71.9388" x2="84.1684" y2="80.5714" stroke="white" stroke-width="1.43878"/>
<line x1="54.3442" y1="24.905" x2="54.083" y2="16.2763" stroke="white" stroke-width="1.43878"/>
<circle cx="113.663" cy="28.7755" r="2.15816" stroke="white" stroke-width="1.43878"/>
<circle cx="27.2328" cy="67.9015" r="2.15816" transform="rotate(-179.194 27.2328 67.9015)" stroke="white" stroke-width="1.43878"/>
<circle cx="133.806" cy="33.0918" r="2.15816" stroke="white" stroke-width="1.43878"/>
<circle cx="7.15274" cy="63.3021" r="2.15816" transform="rotate(-179.194 7.15274 63.3021)" stroke="white" stroke-width="1.43878"/>
<circle cx="138.122" cy="38.8469" r="2.15816" stroke="white" stroke-width="1.43878"/>
<circle cx="2.91775" cy="57.4868" r="2.15816" transform="rotate(-179.194 2.91775 57.4868)" stroke="white" stroke-width="1.43878"/>
<circle cx="117.98" cy="21.5816" r="2.15816" stroke="white" stroke-width="1.43878"/>
<circle cx="22.8156" cy="75.034" r="2.15816" transform="rotate(-179.194 22.8156 75.034)" stroke="white" stroke-width="1.43878"/>
<circle cx="128.051" cy="47.4796" r="2.15816" stroke="white" stroke-width="1.43878"/>
<circle cx="17.3056" cy="50.3974" r="2.15816" transform="rotate(-179.194 17.3056 50.3974)" stroke="white" stroke-width="1.43878"/>
<circle cx="117.98" cy="51.7959" r="2.15816" stroke="white" stroke-width="1.43878"/>
<circle cx="23.2409" cy="44.8226" r="2.15816" transform="rotate(-179.194 23.2409 44.8226)" stroke="white" stroke-width="1.43878"/>
<circle cx="100.714" cy="47.4796" r="2.15816" stroke="white" stroke-width="1.43878"/>
<circle cx="40.4438" cy="49.3815" r="2.15816" transform="rotate(-179.194 40.4438 49.3815)" stroke="white" stroke-width="1.43878"/>
<circle cx="122.296" cy="60.4286" r="2.15816" stroke="white" stroke-width="1.43878"/>
<circle cx="19.0465" cy="36.1301" r="2.15816" transform="rotate(-179.194 19.0465 36.1301)" stroke="white" stroke-width="1.43878"/>
<circle cx="130.929" cy="70.5" r="2.15816" stroke="white" stroke-width="1.43878"/>
<circle cx="10.5564" cy="25.9382" r="2.15816" transform="rotate(-179.194 10.5564 25.9382)" stroke="white" stroke-width="1.43878"/>
<circle cx="70.5" cy="84.8877" r="2.15816" stroke="white" stroke-width="1.43878"/>
<circle cx="67.6145" cy="11.5485" r="2.15816" transform="rotate(178.266 67.6145 11.5485)" stroke="white" stroke-width="1.43878"/>
<circle cx="57.551" cy="87.7653" r="2.15816" stroke="white" stroke-width="1.43878"/>
<circle cx="80.4706" cy="8.28049" r="2.15816" transform="rotate(178.266 80.4706 8.28049)" stroke="white" stroke-width="1.43878"/>
<circle cx="71.9388" cy="93.5204" r="2.15816" stroke="white" stroke-width="1.43878"/>
<circle cx="65.9153" cy="2.96329" r="2.15816" transform="rotate(178.266 65.9153 2.96329)" stroke="white" stroke-width="1.43878"/>
<circle cx="84.8878" cy="82.0102" r="2.15816" stroke="white" stroke-width="1.43878"/>
<circle cx="53.3204" cy="14.86" r="2.15816" transform="rotate(178.266 53.3204 14.86)" stroke="white" stroke-width="1.43878"/>
<circle cx="77.6938" cy="77.6939" r="2.15816" stroke="white" stroke-width="1.43878"/>
<circle cx="60.6416" cy="18.9567" r="2.15816" transform="rotate(178.266 60.6416 18.9567)" stroke="white" stroke-width="1.43878"/>
<line x1="84.379" y1="32.5831" x2="94.4504" y2="22.5117" stroke="white" stroke-width="1.43878"/>
<line x1="56.5676" y1="64.5064" x2="46.3554" y2="74.4351" stroke="white" stroke-width="1.43878"/>
<line x1="93.0888" y1="33.9551" x2="98.8439" y2="29.6388" stroke="white" stroke-width="1.43878"/>
<line x1="47.8781" y1="63.012" x2="42.0628" y2="67.2469" stroke="white" stroke-width="1.43878"/>
<line x1="93.1503" y1="38.2301" x2="100.344" y2="33.9137" stroke="white" stroke-width="1.43878"/>
<line x1="47.8768" y1="58.7366" x2="40.6229" y2="62.9513" stroke="white" stroke-width="1.43878"/>
<line x1="103.417" y1="42.4654" x2="114.928" y2="39.5878" stroke="white" stroke-width="1.43878"/>
<line x1="37.6704" y1="54.3572" x2="26.1208" y2="57.0725" stroke="white" stroke-width="1.43878"/>
<line x1="98.9538" y1="52.5913" x2="110.464" y2="46.8362" stroke="white" stroke-width="1.43878"/>
<line x1="42.276" y1="44.2952" x2="30.6859" y2="49.8877" stroke="white" stroke-width="1.43878"/>
<line x1="101.886" y1="56.8831" x2="116.274" y2="51.128" stroke="white" stroke-width="1.43878"/>
<line x1="39.4046" y1="39.9625" x2="24.9373" y2="45.5145" stroke="white" stroke-width="1.43878"/>
<line x1="93.5204" y1="22.301" x2="116.541" y2="22.301" stroke="white" stroke-width="1.43878"/>
<line x1="47.2825" y1="74.6589" x2="24.2643" y2="74.3349" stroke="white" stroke-width="1.43878"/>
<line x1="97.8367" y1="29.4949" x2="112.224" y2="29.4949" stroke="white" stroke-width="1.43878"/>
<line x1="43.0679" y1="67.405" x2="28.6815" y2="67.2025" stroke="white" stroke-width="1.43878"/>
<line x1="99.2755" y1="33.8112" x2="132.367" y2="33.8112" stroke="white" stroke-width="1.43878"/>
<line x1="41.6899" y1="63.0688" x2="8.60139" y2="62.603" stroke="white" stroke-width="1.43878"/>
<line x1="113.663" y1="39.5663" x2="136.684" y2="39.5663" stroke="white" stroke-width="1.43878"/>
<line x1="27.3846" y1="57.1118" x2="4.36652" y2="56.7878" stroke="white" stroke-width="1.43878"/>
<line x1="109.347" y1="46.7602" x2="126.612" y2="46.7602" stroke="white" stroke-width="1.43878"/>
<line x1="31.7931" y1="49.9792" x2="18.6853" y2="49.6375" stroke="white" stroke-width="1.43878"/>
<line x1="90.6428" y1="48.199" x2="99.2755" y2="48.199" stroke="white" stroke-width="1.43878"/>
<line x1="50.5243" y1="48.804" x2="41.8925" y2="48.6825" stroke="white" stroke-width="1.43878"/>
<line x1="87.7653" y1="61.148" x2="120.857" y2="61.148" stroke="white" stroke-width="1.43878"/>
<line x1="53.5839" y1="35.8968" x2="20.4953" y2="35.431" stroke="white" stroke-width="1.43878"/>
<line x1="105.031" y1="71.2194" x2="129.49" y2="71.2194" stroke="white" stroke-width="1.43878"/>
<line x1="36.462" y1="25.5834" x2="12.0053" y2="25.2391" stroke="white" stroke-width="1.43878"/>
<line x1="82.0103" y1="65.4643" x2="99.2756" y2="65.4643" stroke="white" stroke-width="1.43878"/>
<line x1="59.3991" y1="31.6619" x2="42.1355" y2="31.4189" stroke="white" stroke-width="1.43878"/>
<line x1="98.2861" y1="65.6219" x2="105.48" y2="71.377" stroke="white" stroke-width="1.43878"/>
<line x1="43.127" y1="31.2752" x2="36.0148" y2="25.4194" stroke="white" stroke-width="1.43878"/>
<line x1="63.7556" y1="85.7648" x2="70.9494" y2="91.5199" stroke="white" stroke-width="1.43878"/>
<line x1="74.3294" y1="10.4678" x2="66.9647" y2="4.93297" stroke="white" stroke-width="1.43878"/>
<line x1="76.7045" y1="67.0607" x2="83.8984" y2="72.8158" stroke="white" stroke-width="1.43878"/>
<line x1="61.9522" y1="29.555" x2="54.5875" y2="24.0202" stroke="white" stroke-width="1.43878"/>
<line x1="74.0233" y1="67.3055" x2="78.0829" y2="75.5755" stroke="white" stroke-width="1.43878"/>
<line x1="64.6247" y1="29.2293" x2="60.3169" y2="21.0859" stroke="white" stroke-width="1.43878"/>
</svg>
